M48
; DRILL file {KiCad 8.0.7} date 2025-04-20T02:49:45+0200
; FORMAT={-:-/ absolute / metric / decimal}
; #@! TF.CreationDate,2025-04-20T02:49:45+02:00
; #@! TF.GenerationSoftware,Kicad,Pcbnew,8.0.7
; #@! TF.FileFunction,Plated,1,2,PTH
FMAT,2
METRIC
; #@! TA.AperFunction,Plated,PTH,ComponentDrill
T1C1.000
%
G90
G05
T1
X116.078Y-69.18
X116.078Y-71.72
X116.078Y-74.26
X116.078Y-76.8
X116.078Y-79.34
X116.078Y-81.88
X116.078Y-84.42
X116.078Y-86.96
X116.078Y-89.5
X116.078Y-92.04
X116.078Y-94.58
X116.078Y-97.12
X116.078Y-99.66
X116.078Y-102.2
X116.078Y-104.74
X116.078Y-107.28
X116.078Y-109.82
X116.078Y-112.36
X118.618Y-69.18
X118.618Y-71.72
X118.618Y-74.26
X118.618Y-76.8
X118.618Y-79.34
X118.618Y-81.88
X118.618Y-84.42
X118.618Y-86.96
X118.618Y-89.5
X118.618Y-92.04
X118.618Y-94.58
X118.618Y-97.12
X118.618Y-99.66
X118.618Y-102.2
X118.618Y-104.74
X118.618Y-107.28
X118.618Y-109.82
X118.618Y-112.36
M30
