%TF.GenerationSoftware,KiCad,Pcbnew,8.0.7*%
%TF.CreationDate,2025-04-14T04:35:45+02:00*%
%TF.ProjectId,Am29F400B-MEGA-adapter,416d3239-4634-4303-9042-2d4d4547412d,rev?*%
%TF.SameCoordinates,Original*%
%TF.FileFunction,Drillmap*%
%TF.FilePolarity,Positive*%
%FSLAX45Y45*%
G04 Gerber Fmt 4.5, Leading zero omitted, Abs format (unit mm)*
G04 Created by KiCad (PCBNEW 8.0.7) date 2025-04-14 04:35:45*
%MOMM*%
%LPD*%
G01*
G04 APERTURE LIST*
%ADD10C,0.050000*%
%ADD11C,0.200000*%
G04 APERTURE END LIST*
D10*
X11176000Y-6350000D02*
X11176000Y-11684000D01*
X11430000Y-6350000D02*
X11176000Y-6350000D01*
X17145000Y-11811000D02*
X17145000Y-6985000D01*
X11176000Y-11684000D02*
X11176000Y-11811000D01*
X16637000Y-11811000D02*
X17145000Y-11811000D01*
X11176000Y-11811000D02*
X16129000Y-11811000D01*
X16129000Y-11811000D02*
X16637000Y-11811000D01*
X17145000Y-6350000D02*
X11430000Y-6350000D01*
X17145000Y-6985000D02*
X17145000Y-6350000D01*
D11*
X11434277Y-12124984D02*
X11434277Y-11924984D01*
X11434277Y-11924984D02*
X11481896Y-11924984D01*
X11481896Y-11924984D02*
X11510467Y-11934508D01*
X11510467Y-11934508D02*
X11529515Y-11953555D01*
X11529515Y-11953555D02*
X11539039Y-11972603D01*
X11539039Y-11972603D02*
X11548562Y-12010698D01*
X11548562Y-12010698D02*
X11548562Y-12039269D01*
X11548562Y-12039269D02*
X11539039Y-12077365D01*
X11539039Y-12077365D02*
X11529515Y-12096412D01*
X11529515Y-12096412D02*
X11510467Y-12115460D01*
X11510467Y-12115460D02*
X11481896Y-12124984D01*
X11481896Y-12124984D02*
X11434277Y-12124984D01*
X11634277Y-12124984D02*
X11634277Y-11991650D01*
X11634277Y-12029746D02*
X11643801Y-12010698D01*
X11643801Y-12010698D02*
X11653324Y-12001174D01*
X11653324Y-12001174D02*
X11672372Y-11991650D01*
X11672372Y-11991650D02*
X11691420Y-11991650D01*
X11758086Y-12124984D02*
X11758086Y-11991650D01*
X11758086Y-11924984D02*
X11748562Y-11934508D01*
X11748562Y-11934508D02*
X11758086Y-11944031D01*
X11758086Y-11944031D02*
X11767610Y-11934508D01*
X11767610Y-11934508D02*
X11758086Y-11924984D01*
X11758086Y-11924984D02*
X11758086Y-11944031D01*
X11881896Y-12124984D02*
X11862848Y-12115460D01*
X11862848Y-12115460D02*
X11853324Y-12096412D01*
X11853324Y-12096412D02*
X11853324Y-11924984D01*
X11986658Y-12124984D02*
X11967610Y-12115460D01*
X11967610Y-12115460D02*
X11958086Y-12096412D01*
X11958086Y-12096412D02*
X11958086Y-11924984D01*
X12215229Y-12124984D02*
X12215229Y-11924984D01*
X12215229Y-11924984D02*
X12281896Y-12067841D01*
X12281896Y-12067841D02*
X12348562Y-11924984D01*
X12348562Y-11924984D02*
X12348562Y-12124984D01*
X12529515Y-12124984D02*
X12529515Y-12020222D01*
X12529515Y-12020222D02*
X12519991Y-12001174D01*
X12519991Y-12001174D02*
X12500943Y-11991650D01*
X12500943Y-11991650D02*
X12462848Y-11991650D01*
X12462848Y-11991650D02*
X12443801Y-12001174D01*
X12529515Y-12115460D02*
X12510467Y-12124984D01*
X12510467Y-12124984D02*
X12462848Y-12124984D01*
X12462848Y-12124984D02*
X12443801Y-12115460D01*
X12443801Y-12115460D02*
X12434277Y-12096412D01*
X12434277Y-12096412D02*
X12434277Y-12077365D01*
X12434277Y-12077365D02*
X12443801Y-12058317D01*
X12443801Y-12058317D02*
X12462848Y-12048793D01*
X12462848Y-12048793D02*
X12510467Y-12048793D01*
X12510467Y-12048793D02*
X12529515Y-12039269D01*
X12624753Y-11991650D02*
X12624753Y-12191650D01*
X12624753Y-12001174D02*
X12643801Y-11991650D01*
X12643801Y-11991650D02*
X12681896Y-11991650D01*
X12681896Y-11991650D02*
X12700943Y-12001174D01*
X12700943Y-12001174D02*
X12710467Y-12010698D01*
X12710467Y-12010698D02*
X12719991Y-12029746D01*
X12719991Y-12029746D02*
X12719991Y-12086888D01*
X12719991Y-12086888D02*
X12710467Y-12105936D01*
X12710467Y-12105936D02*
X12700943Y-12115460D01*
X12700943Y-12115460D02*
X12681896Y-12124984D01*
X12681896Y-12124984D02*
X12643801Y-12124984D01*
X12643801Y-12124984D02*
X12624753Y-12115460D01*
X12805705Y-12105936D02*
X12815229Y-12115460D01*
X12815229Y-12115460D02*
X12805705Y-12124984D01*
X12805705Y-12124984D02*
X12796182Y-12115460D01*
X12796182Y-12115460D02*
X12805705Y-12105936D01*
X12805705Y-12105936D02*
X12805705Y-12124984D01*
X12805705Y-12001174D02*
X12815229Y-12010698D01*
X12815229Y-12010698D02*
X12805705Y-12020222D01*
X12805705Y-12020222D02*
X12796182Y-12010698D01*
X12796182Y-12010698D02*
X12805705Y-12001174D01*
X12805705Y-12001174D02*
X12805705Y-12020222D01*
M02*
