%TF.GenerationSoftware,KiCad,Pcbnew,8.0.7*%
%TF.CreationDate,2025-04-08T08:44:32+02:00*%
%TF.ProjectId,Am29F400B-MEGA-adapter,416d3239-4634-4303-9042-2d4d4547412d,rev?*%
%TF.SameCoordinates,Original*%
%TF.FileFunction,Legend,Bot*%
%TF.FilePolarity,Positive*%
%FSLAX46Y46*%
G04 Gerber Fmt 4.6, Leading zero omitted, Abs format (unit mm)*
G04 Created by KiCad (PCBNEW 8.0.7) date 2025-04-08 08:44:32*
%MOMM*%
%LPD*%
G01*
G04 APERTURE LIST*
%ADD10C,0.120000*%
%ADD11O,1.700000X1.700000*%
%ADD12R,1.700000X1.700000*%
G04 APERTURE END LIST*
D10*
%TO.C,U1*%
X114748000Y-113690000D02*
X114748000Y-67850000D01*
X117348000Y-67850000D02*
X117348000Y-70450000D01*
X114748000Y-67850000D02*
X117348000Y-67850000D01*
X114748000Y-113690000D02*
X119948000Y-113690000D01*
X117348000Y-70450000D02*
X119948000Y-70450000D01*
X119948000Y-113690000D02*
X119948000Y-70450000D01*
X119948000Y-67850000D02*
X119948000Y-69180000D01*
X118618000Y-67850000D02*
X119948000Y-67850000D01*
%TD*%
%LPC*%
D11*
%TO.C,U1*%
X116078000Y-112360000D03*
X118618000Y-112360000D03*
X116078000Y-109820000D03*
X118618000Y-109820000D03*
X116078000Y-107280000D03*
X118618000Y-107280000D03*
X116078000Y-104740000D03*
X118618000Y-104740000D03*
X116078000Y-102200000D03*
X118618000Y-102200000D03*
X116078000Y-99660000D03*
X118618000Y-99660000D03*
X116078000Y-97120000D03*
X118618000Y-97120000D03*
X116078000Y-94580000D03*
X118618000Y-94580000D03*
X116078000Y-92040000D03*
X118618000Y-92040000D03*
X116078000Y-89500000D03*
X118618000Y-89500000D03*
X116078000Y-86960000D03*
X118618000Y-86960000D03*
X116078000Y-84420000D03*
X118618000Y-84420000D03*
X116078000Y-81880000D03*
X118618000Y-81880000D03*
X116078000Y-79340000D03*
X118618000Y-79340000D03*
X116078000Y-76800000D03*
X118618000Y-76800000D03*
X116078000Y-74260000D03*
X118618000Y-74260000D03*
X116078000Y-71720000D03*
X118618000Y-71720000D03*
X116078000Y-69180000D03*
D12*
X118618000Y-69180000D03*
%TD*%
%LPD*%
M02*
