G04 #@! TF.GenerationSoftware,KiCad,Pcbnew,8.0.7*
G04 #@! TF.CreationDate,2025-04-20T02:49:42+02:00*
G04 #@! TF.ProjectId,Am29F400B-MEGA-adapter,416d3239-4634-4303-9042-2d4d4547412d,rev?*
G04 #@! TF.SameCoordinates,Original*
G04 #@! TF.FileFunction,Paste,Top*
G04 #@! TF.FilePolarity,Positive*
%FSLAX46Y46*%
G04 Gerber Fmt 4.6, Leading zero omitted, Abs format (unit mm)*
G04 Created by KiCad (PCBNEW 8.0.7) date 2025-04-20 02:49:42*
%MOMM*%
%LPD*%
G01*
G04 APERTURE LIST*
G04 Aperture macros list*
%AMRoundRect*
0 Rectangle with rounded corners*
0 $1 Rounding radius*
0 $2 $3 $4 $5 $6 $7 $8 $9 X,Y pos of 4 corners*
0 Add a 4 corners polygon primitive as box body*
4,1,4,$2,$3,$4,$5,$6,$7,$8,$9,$2,$3,0*
0 Add four circle primitives for the rounded corners*
1,1,$1+$1,$2,$3*
1,1,$1+$1,$4,$5*
1,1,$1+$1,$6,$7*
1,1,$1+$1,$8,$9*
0 Add four rect primitives between the rounded corners*
20,1,$1+$1,$2,$3,$4,$5,0*
20,1,$1+$1,$4,$5,$6,$7,0*
20,1,$1+$1,$6,$7,$8,$9,0*
20,1,$1+$1,$8,$9,$2,$3,0*%
G04 Aperture macros list end*
%ADD10RoundRect,0.150000X0.150000X-0.775000X0.150000X0.775000X-0.150000X0.775000X-0.150000X-0.775000X0*%
G04 APERTURE END LIST*
D10*
X133165000Y-98575000D03*
X134435000Y-98575000D03*
X135705000Y-98575000D03*
X136975000Y-98575000D03*
X138245000Y-98575000D03*
X139515000Y-98575000D03*
X140785000Y-98575000D03*
X142055000Y-98575000D03*
X143325000Y-98575000D03*
X144595000Y-98575000D03*
X145865000Y-98575000D03*
X147135000Y-98575000D03*
X148405000Y-98575000D03*
X149675000Y-98575000D03*
X150945000Y-98575000D03*
X152215000Y-98575000D03*
X153485000Y-98575000D03*
X154755000Y-98575000D03*
X156025000Y-98575000D03*
X157295000Y-98575000D03*
X158565000Y-98575000D03*
X159835000Y-98575000D03*
X159835000Y-83425000D03*
X158565000Y-83425000D03*
X157295000Y-83425000D03*
X156025000Y-83425000D03*
X154755000Y-83425000D03*
X153485000Y-83425000D03*
X152215000Y-83425000D03*
X150945000Y-83425000D03*
X149675000Y-83425000D03*
X148405000Y-83425000D03*
X147135000Y-83425000D03*
X145865000Y-83425000D03*
X144595000Y-83425000D03*
X143325000Y-83425000D03*
X142055000Y-83425000D03*
X140785000Y-83425000D03*
X139515000Y-83425000D03*
X138245000Y-83425000D03*
X136975000Y-83425000D03*
X135705000Y-83425000D03*
X134435000Y-83425000D03*
X133165000Y-83425000D03*
M02*
